<svg width="30" height="30" viewBox="0 0 30 30" fill="none" xmlns="http://www.w3.org/2000/svg">
<path d="M3.46875 7.62013H20.9965C21.1187 7.62013 21.2361 7.57138 21.3226 7.48509C21.4092 7.39857 21.4577 7.28115 21.4577 7.15893V3.46887C21.4577 3.34642 21.4092 3.22924 21.3226 3.14272C21.2361 3.0562 21.1187 3.00745 20.9965 3.00745H3.46875C3.214 3.00745 3.00732 3.21412 3.00732 3.46887V7.15893C3.00732 7.28115 3.05608 7.39857 3.14259 7.48509C3.22911 7.57138 3.3463 7.62013 3.46875 7.62013ZM3.92995 3.93007H20.5348V6.69745H3.92995V3.93007Z" fill="black"/>
<path d="M7.15905 9.46527H3.46899C3.21425 9.46527 3.00757 9.67172 3.00757 9.92647V13.6165C3.00757 13.7387 3.05632 13.8562 3.14284 13.9427C3.22936 14.0292 3.34654 14.0777 3.46899 14.0777H7.15905C7.28127 14.0777 7.39869 14.0292 7.48521 13.9427C7.5715 13.8562 7.62025 13.7387 7.62025 13.6165V9.92647C7.62025 9.80425 7.5715 9.68683 7.48521 9.60031C7.39869 9.51379 7.28127 9.46527 7.15905 9.46527ZM6.69786 13.1553H3.93024V10.3877H6.69762L6.69786 13.1553Z" fill="black"/>
<path d="M7.15905 15.9223H3.46899C3.21425 15.9223 3.00757 16.1288 3.00757 16.3835V20.0736C3.00757 20.196 3.05632 20.3132 3.14284 20.3997C3.22936 20.4862 3.34654 20.5348 3.46899 20.5348H7.15905C7.28127 20.5348 7.39869 20.4862 7.48521 20.3997C7.5715 20.3132 7.62025 20.196 7.62025 20.0736V16.3835C7.62025 16.2613 7.5715 16.1439 7.48521 16.0573C7.39869 15.9708 7.28127 15.9223 7.15905 15.9223ZM6.69786 19.6124H3.93024V16.845H6.69762L6.69786 19.6124Z" fill="black"/>
<path d="M7.15905 22.3799H3.46899C3.21425 22.3799 3.00757 22.5866 3.00757 22.8413V26.5314C3.00757 26.6536 3.05632 26.771 3.14284 26.8575C3.22936 26.9438 3.34654 26.9926 3.46899 26.9926H7.15905C7.28127 26.9926 7.39869 26.9438 7.48521 26.8575C7.5715 26.771 7.62025 26.6536 7.62025 26.5314V22.8413C7.62025 22.7189 7.5715 22.6017 7.48521 22.5152C7.39869 22.4286 7.28127 22.3799 7.15905 22.3799ZM6.69786 26.0699H3.93024V23.3026H6.69762L6.69786 26.0699Z" fill="black"/>
<path d="M14.077 9.46527H10.387C10.1322 9.46527 9.92578 9.67172 9.92578 9.92647V13.6165C9.92578 13.7387 9.9743 13.8562 10.0608 13.9427C10.1473 14.0292 10.2648 14.0777 10.387 14.0777H14.077C14.1995 14.0777 14.3167 14.0292 14.4032 13.9427C14.4897 13.8562 14.5382 13.7387 14.5382 13.6165V9.92647C14.5382 9.80425 14.4897 9.68683 14.4032 9.60031C14.3167 9.51379 14.1995 9.46527 14.077 9.46527ZM13.6158 13.1553H10.8482V10.3877H13.6156L13.6158 13.1553Z" fill="black"/>
<path d="M14.077 15.9223H10.387C10.1322 15.9223 9.92578 16.1288 9.92578 16.3835V20.0736C9.92578 20.196 9.9743 20.3132 10.0608 20.3997C10.1473 20.4862 10.2648 20.5348 10.387 20.5348H14.077C14.1995 20.5348 14.3167 20.4862 14.4032 20.3997C14.4897 20.3132 14.5382 20.196 14.5382 20.0736V16.3835C14.5382 16.2613 14.4897 16.1439 14.4032 16.0573C14.3167 15.9708 14.1995 15.9223 14.077 15.9223ZM13.6158 19.6124H10.8482V16.845H13.6156L13.6158 19.6124Z" fill="black"/>
<path d="M14.077 22.3799H10.387C10.1322 22.3799 9.92578 22.5866 9.92578 22.8413V26.5314C9.92578 26.6536 9.9743 26.771 10.0608 26.8575C10.1473 26.9438 10.2648 26.9926 10.387 26.9926H14.077C14.1995 26.9926 14.3167 26.9438 14.4032 26.8575C14.4897 26.771 14.5382 26.6536 14.5382 26.5314V22.8413C14.5382 22.7189 14.4897 22.6017 14.4032 22.5152C14.3167 22.4286 14.1995 22.3799 14.077 22.3799ZM13.6158 26.0699H10.8482V23.3026H13.6156L13.6158 26.0699Z" fill="black"/>
<path d="M27.4535 13.1549H23.3022V2.54592C23.3022 2.17902 23.1564 1.82697 22.8969 1.56746C22.6373 1.30791 22.2855 1.16211 21.9184 1.16211H2.54616C2.17927 1.16211 1.82722 1.30791 1.56771 1.56746C1.30815 1.82701 1.16235 2.17906 1.16235 2.54592V27.4535C1.16235 27.8204 1.30815 28.1725 1.56771 28.432C1.82726 28.6915 2.17931 28.8373 2.54616 28.8373H27.4538C27.8207 28.8373 28.1727 28.6915 28.4322 28.432C28.6918 28.1724 28.8376 27.8204 28.8376 27.4535V14.5383C28.8376 14.1714 28.6918 13.8194 28.4322 13.5598C28.1727 13.3005 27.8206 13.1547 27.4538 13.1547L27.4535 13.1549ZM21.457 24.6862C21.457 24.4314 21.6635 24.2247 21.9182 24.2247C22.1729 24.2247 22.3794 24.4314 22.3794 24.6862V25.6085C22.3794 25.8633 22.1729 26.0697 21.9182 26.0697C21.6635 26.0697 21.457 25.8633 21.457 25.6085V24.6862ZM21.9182 23.2637C21.5463 23.2692 21.1918 23.4221 20.9322 23.6887C20.6729 23.9554 20.5298 24.314 20.5344 24.6861H19.612C19.612 24.1918 19.3483 23.7349 18.9201 23.4877C18.4921 23.2405 17.9645 23.2405 17.5363 23.4877C17.1083 23.7349 16.8446 24.1918 16.8446 24.6861H15.9219V21.4573H20.5433C20.5557 21.9401 20.8205 22.3809 21.2409 22.6187C21.6611 22.8567 22.1754 22.8567 22.5957 22.6187C23.0159 22.3809 23.2807 21.94 23.2933 21.4573H24.2333C24.2456 21.9401 24.5105 22.3809 24.9307 22.6187C25.3511 22.8567 25.8652 22.8567 26.2857 22.6187C26.7059 22.3809 26.9707 21.94 26.9833 21.4573H27.9144V24.6861H23.3019C23.3065 24.314 23.1635 23.9553 22.9041 23.6887C22.6448 23.4221 22.2901 23.2692 21.9181 23.2637H21.9182ZM17.767 24.6862C17.767 24.4314 17.9734 24.2247 18.2281 24.2247C18.4829 24.2247 18.6896 24.4314 18.6896 24.6862V25.6085C18.6896 25.8633 18.4829 26.0697 18.2281 26.0697C17.9734 26.0697 17.767 25.8633 17.767 25.6085V24.6862ZM18.6893 17.3063H18.6896C18.6896 17.561 18.4829 17.7675 18.2281 17.7675C17.9734 17.7675 17.7669 17.561 17.7669 17.3063V16.3837C17.7669 16.1289 17.9734 15.9225 18.2281 15.9225C18.4829 15.9225 18.6896 16.1289 18.6896 16.3837L18.6893 17.3063ZM18.2281 18.6535C18.5902 18.6578 18.9393 18.5184 19.1986 18.266C19.4579 18.0133 19.6067 17.6681 19.6119 17.3063H20.5343C20.5343 17.8006 20.7982 18.2575 21.2262 18.5047C21.6545 18.7519 22.1819 18.7519 22.6101 18.5047C23.0383 18.2575 23.302 17.8006 23.302 17.3063H27.9144V20.5351L26.992 20.5348V20.4916C26.9987 20.1959 26.9122 19.9056 26.7444 19.6619C26.5766 19.4184 26.3363 19.2339 26.0575 19.1345C25.6341 18.9915 25.1678 19.0609 24.8044 19.3211C24.4411 19.5813 24.2253 20.0004 24.2244 20.4474V20.5349H23.302V20.4916C23.3086 20.1959 23.2221 19.9057 23.0543 19.6619C22.8866 19.4184 22.6462 19.2339 22.3674 19.1346C21.944 18.9915 21.4778 19.0609 21.1145 19.3211C20.7511 19.5814 20.5352 20.0005 20.5343 20.4475V20.5349H15.9219V17.3063H16.8445C16.8498 17.6681 16.9983 18.0133 17.2579 18.266C17.5172 18.5184 17.8663 18.6578 18.2281 18.6535ZM22.3794 17.3063C22.3794 17.561 22.1729 17.7675 21.9182 17.7675C21.6634 17.7675 21.457 17.561 21.457 17.3063V16.3837C21.457 16.1289 21.6634 15.9225 21.9182 15.9225C22.1729 15.9225 22.3794 16.1289 22.3794 16.3837V17.3063ZM25.1468 20.5351L25.147 20.5349C25.147 20.2801 25.3534 20.0737 25.6082 20.0737C25.8629 20.0737 26.0694 20.2801 26.0694 20.5349V21.4575C26.0694 21.7122 25.8629 21.9187 25.6082 21.9187C25.3534 21.9187 25.147 21.7122 25.147 21.4575L25.1468 20.5351ZM21.4567 20.5351L21.4569 20.5349C21.4569 20.2801 21.6634 20.0737 21.9181 20.0737C22.1729 20.0737 22.3793 20.2801 22.3793 20.5349V21.4575C22.3793 21.7122 22.1729 21.9187 21.9181 21.9187C21.6634 21.9187 21.4569 21.7122 21.4569 21.4575L21.4567 20.5351ZM27.9143 14.5386V16.3836H23.3019C23.3019 15.8892 23.0382 15.4326 22.61 15.1854C22.1817 14.9382 21.6543 14.9382 21.2261 15.1854C20.7981 15.4326 20.5342 15.8892 20.5342 16.3836H19.6118C19.6118 15.8892 19.3482 15.4326 18.9199 15.1854C18.4919 14.9382 17.9643 14.9382 17.5361 15.1854C17.1081 15.4326 16.8444 15.8892 16.8444 16.3836H15.9218V14.5386C15.9218 14.2838 16.1282 14.0774 16.383 14.0774H27.4531C27.5755 14.0774 27.6927 14.1259 27.7792 14.2124C27.8658 14.299 27.9143 14.4164 27.9143 14.5386ZM20.5344 13.155H17.7671V10.3874H20.5344V13.155ZM2.08444 27.4537V2.54604C2.08444 2.29129 2.29089 2.08484 2.54564 2.08484H21.9179C22.0404 2.08484 22.1575 2.13336 22.2441 2.21988C22.3306 2.3064 22.3791 2.42381 22.3791 2.54604V13.155H21.4567V9.92621C21.4567 9.80399 21.4082 9.68658 21.3217 9.60006C21.2352 9.51354 21.1177 9.46501 20.9955 9.46501H17.3055C17.0507 9.46501 16.8443 9.67146 16.8443 9.92621V13.155H16.3828C16.0159 13.155 15.6639 13.3008 15.4044 13.5601C15.1451 13.8197 14.9993 14.1717 14.9993 14.5386V27.4538C15.0006 27.6113 15.0295 27.7674 15.0839 27.915H2.54547C2.29072 27.915 2.08427 27.7086 2.08427 27.4538L2.08444 27.4537ZM27.4532 27.9149H16.3831C16.1283 27.9149 15.9219 27.7084 15.9219 27.4537V25.6087H16.8445C16.8445 26.103 17.1082 26.5599 17.5362 26.8071C17.9644 27.0543 18.492 27.0543 18.92 26.8071C19.3482 26.5599 19.6119 26.103 19.6119 25.6087H20.5343C20.5343 26.103 20.7982 26.5599 21.2263 26.8071C21.6545 27.0543 22.1819 27.0543 22.6101 26.8071C23.0383 26.5599 23.302 26.103 23.302 25.6087H27.9144V27.4537C27.9144 27.5761 27.8659 27.6933 27.7794 27.7798C27.6929 27.8663 27.5756 27.9149 27.4532 27.9149Z" fill="black"/>
</svg>
